# AST/ASF file generated using VICON BodyLanguage
# -----------------------------------------------
:version 1.10
:name VICON
:units
  mass 1.0
  length 0.45
  angle deg
:documentation
   .ast/.asf automatically generated from VICON data using
   VICON BodyBuilder and BodyLanguage model FoxedUp or BRILLIANT.MOD
:root
   order TX TY TZ RX RY RZ
   axis XYZ
   position 0 0 0  
   orientation 0 0 0 
:bonedata
  begin
     id 1 
     name lhipjoint
     direction 0.707368 -0.647095 0.284426 
     length 2.60678 
     axis 0 0 0  XYZ
  end
  begin
     id 2 
     name lfemur
     direction 0.34202 -0.939693 0  
     length 6.63812  
     axis 0 0 20  XYZ
    dof rx ry rz
    limits (-160.0 20.0)
           (-70.0 70.0)
           (-60.0 70.0)
  end
  begin
     id 3 
     name ltibia
     direction 0.34202 -0.939693 0   
     length 7.51178   
     axis 0 0 20   XYZ
    dof rx
    limits (-10.0 170.0)
  end
  begin
     id 4 
     name lfoot
     direction 0.121251 -0.333133 0.935051   
     length 1.83716   
     axis -90 7.62852e-016 20   XYZ
    dof rx rz
    limits (-45.0 90.0)
           (-70.0 20.0)
  end
  begin
     id 5 
     name ltoes
     direction 1.53611e-011 -4.21962e-011 1   
     length 0.916133   
     axis -90 7.62852e-016 20   XYZ
    dof rx
    limits (-90.0 20.0)
  end
  begin
     id 6 
     name rhipjoint
     direction -0.692419 -0.660507 0.290321   
     length 2.55385  
     axis 0 0 0  XYZ 
  end
  begin
     id 7 
     name rfemur
     direction -0.34202 -0.939693 0   
     length 7.29079   
     axis 0 0 -20   XYZ
    dof rx ry rz
    limits (-160.0 20.0)
           (-70.0 70.0)
           (-70.0 60.0)
  end
  begin
     id 8 
     name rtibia
     direction -0.34202 -0.939693 0   
     length 7.47143   
     axis 0 0 -20   XYZ
    dof rx
    limits (-10.0 170.0)
 end
 begin
     id 9 
     name rfoot
     direction -0.119907 -0.329441 0.936532   
     length 1.79439  
     axis -90 -7.62852e-016 -20   XYZ
    dof rx rz
    limits (-45.0 90.0)
           (-20.0 70.0)
  end
  begin
     id 10 
     name rtoes
     direction -1.53571e-011 -4.21961e-011 1   
     length 0.896039   
     axis -90 -7.62852e-016 -20   XYZ
    dof rx
    limits (-90.0 20.0)
  end
  begin
     id 11 
     name lowerback
     direction 0.0367721 0.992912 -0.113016   
     length 1.73542   
     axis 0 0 0   XYZ
    dof rx ry rz
    limits (-20.0 45.0)
           (-30.0 30.0)
           (-30.0 30.0)
  end
  begin
     id 12 
     name upperback
     direction -0.000314626 0.990678 0.136227   
     length 1.7514   
     axis 0 0 0   XYZ
    dof rx ry rz
    limits (-20.0 45.0)
           (-30.0 30.0)
           (-30.0 30.0)
  end
  begin
     id 13 
     name thorax
     direction -0.0226159 0.981151 0.191917   
     length 1.71471   
     axis 0 0 0   XYZ
    dof rx ry rz
    limits (-20.0 45.0)
           (-30.0 30.0)
           (-30.0 30.0)
  end
  begin
     id 14 
     name lowerneck
     direction 0.0219333 0.998071 0.0580739   
     length 1.65882   
     axis 0 0 0   XYZ
    dof rx ry rz
    limits (-20.0 45.0)
           (-30.0 30.0)
           (-30.0 30.0)
  end
  begin
     id 15 
     name upperneck
     direction 0.0384529 0.980058 -0.194957   
     length 1.6612   
     axis 0 0 0   XYZ
    dof rx ry rz
    limits (-20.0 45.0)
           (-30.0 30.0)
           (-30.0 30.0)
  end
  begin
     id 16
     name head
     direction 0.00592123 0.997421 -0.0715234  
     length 1.68077  
     axis 0 0 0   XYZ
    dof rx ry rz
    limits (-20.0 45.0)
           (-30.0 30.0)
           (-30.0 30.0)
  end
  begin
     id 17 
     name lclavicle
     direction 0.904803 0.417826 0.0821728  
     length 3.42227  
     axis 0 0 0   XYZ
    dof ry rz
    limits (-20.0 10.0)
           (0.0 20.0)
  end
  begin
     id 18 
     name lhumerus
     direction 1 -4.48965e-011 -2.68786e-027   
     length 5.11878   
     axis -180 -30 -90   XYZ
    dof rx ry rz
    limits (-60.0 90.0)
           (-90.0 90.0)
           (-90.0 90.0)
  end
  begin
     id 19
     name lradius
     direction 1 -4.48965e-011 2.61168e-028   
     length 3.59971   
     axis -180 -30 -90   XYZ
    dof rx
    limits (-10.0 170.0)
  end
  begin
     id 20
     name lwrist
     direction 1 -4.48965e-011 1.58672e-027   
     length 1.79985   
     axis -1.65735e-015 90 90   XYZ
    dof ry
    limits (-180.0 0.0)
 end
  begin
     id 21 
     name lhand
     direction 1 -4.48942e-011 3.17344e-027   
     length 0.62877   
     axis -2.02492e-015 90 90   XYZ
    dof rx rz
    limits (-90.0 90.0)
           (-45.0 45.0)
  end
  begin
     id 22 
     name lfingers
     direction 1 -4.49011e-011 6.34687e-027   
     length 0.506931   
     axis -4.04985e-015 90 90   XYZ
    dof rx
    limits (0.0 90.0)
  end
  begin
     id 23
     name lthumb
     direction 0.707107 -6.34982e-011 0.707107   
     length 0.727854   
     axis -90 45 2.85299e-015   XYZ
    dof rx rz
    limits (-45.0 45.0)
           (-45.0 45.0)
  end
  begin
     id 24 
     name rclavicle
     direction -0.945647 0.32488 0.0143075   
     length 3.52737  
     axis 0 0 0   XYZ 
    dof ry rz
    limits (-10.0 20.0)
           (-20.0 0.0)
  end
  begin
     id 25 
     name rhumerus
     direction -1 -4.48962e-011 1.92182e-027  
     length 5.4902   
     axis -180 30 90   XYZ
    dof rx ry rz
    limits (-90.0 60.0)
           (-90.0 90.0)
           (-90.0 90.0)
  end
  begin
     id 26 
     name rradius
     direction -1 -4.48967e-011 -5.97193e-028   
     length 3.20659   
     axis -180 30 90   XYZ
    dof rx
    limits (-10.0 170.0)
  end
  begin
     id 27 
     name rwrist
     direction -1 -4.48964e-011 1.58672e-027   
     length 1.6033   
     axis -1.65735e-015 -90 -90   XYZ
    dof ry
    limits (-180.0 0.0)
  end
  begin
     id 28
     name rhand
     direction -1 -4.49006e-011 3.17344e-027   
     length 0.691885   
     axis -2.02492e-015 -90 -90   XYZ
    dof rx rz
    limits (-90.0 90.0)
           (-45.0 45.0)
  end
  begin
     id 29
     name rfingers
     direction -1 -4.48908e-011 6.34687e-027   
     length 0.557815   
     axis -4.04985e-015 -90 -90   XYZ
    dof rx
    limits (0.0 90.0)
  end
  begin
     id 30
     name rthumb
     direction -0.707107 -6.34999e-011 0.707107   
     length 0.800915   
     axis -90 -45 -2.85299e-015   XYZ
    dof rx rz
    limits (-45.0 45.0)
           (-45.0 45.0)
  end
:hierarchy
  begin
    root lhipjoint rhipjoint lowerback
    lhipjoint lfemur
    lfemur ltibia
    ltibia lfoot
    lfoot ltoes
    rhipjoint rfemur
    rfemur rtibia
    rtibia rfoot
    rfoot rtoes
    lowerback upperback
    upperback thorax
    thorax lowerneck lclavicle rclavicle
    lowerneck upperneck
    upperneck head
    lclavicle lhumerus
    lhumerus lradius
    lradius lwrist
    lwrist lhand lthumb
    lhand lfingers
    rclavicle rhumerus
    rhumerus rradius
    rradius rwrist
    rwrist rhand rthumb
    rhand rfingers
  end

#!OML:ASF I:\Actors\actors\Patient Classification 1\Patient 1\Session 1\Subject1.ASF
:FULLY-SPECIFIED
:DEGREES
100
root -1.10334 17.5833 7.18213 8.78473 -3.02454 -6.11678
lowerback 5.77039 -0.476536 5.52855
upperback -5.5822 -0.0322536 0.697242
thorax -9.18543 -0.354687 -2.35504
lowerneck -14.8044 -1.37212 1.06408
upperneck 31.0397 -1.94214 -1.29856
head 12.7612 -0.926466 -0.98304
rclavicle 4.84538e-015 -6.36111e-015
rhumerus -22.5911 10.7749 -100.423
rradius 83.0807
rwrist -25.0366
rhand -4.37828 -50.9191
rfingers 7.12502
rthumb 21.3907 -79.7584
lclavicle 4.84538e-015 -6.36111e-015
lhumerus -8.25724 -44.7092 94.2936
lradius 80.4056
lwrist 79.2262
lhand -53.4996 -11.9891
lfingers 7.12502
lthumb -25.9442 16.2603
rfemur -0.49651 30.5187 26.3867
rtibia -2.66354
rfoot -12.2827 -26.6295
rtoes 11.5909
lfemur -2.07109 -26.3565 -8.46294
ltibia 1.9278
lfoot -12.4629 36.1223
ltoes -7.1135
101
root -1.1156 17.5887 7.19162 8.79361 -2.77097 -5.9847
lowerback 5.81669 -0.39424 5.57304
upperback -5.4676 0.0778443 0.642548
thorax -9.07788 -0.301009 -2.45401
lowerneck -14.853 -1.48945 1.04516
upperneck 31.1505 -2.07692 -1.38729
head 12.814 -0.997873 -1.03621
rclavicle 8.86455e-015 4.37326e-015
rhumerus -22.6119 12.7012 -101.261
rradius 81.7415
rwrist -22.4729
rhand -3.69582 -48.6066
rfingers 7.12502
rthumb 22.046 -77.37
lclavicle 8.86455e-015 4.37326e-015
lhumerus -8.4991 -45.1872 93.6897
lradius 80.3762
lwrist 82.4007
lhand -53.0667 -13.0018
lfingers 7.12502
lthumb -25.5296 15.3076
rfemur -0.286909 30.9406 26.3805
rtibia -2.83324
rfoot -12.5185 -27.1909
rtoes 11.9932
lfemur -2.31001 -26.0827 -8.45045
ltibia 2.1471
lfoot -12.241 35.7012
ltoes -7.61115
102
root -1.12497 17.594 7.1989 8.77759 -2.41252 -5.90777
lowerback 5.89835 -0.369397 5.60741
upperback -5.35628 0.11635 0.639186
thorax -9.00091 -0.280307 -2.48274
lowerneck -14.8713 -1.57095 1.04153
upperneck 31.2328 -2.17 -1.45638
head 12.8495 -1.04671 -1.07754
rclavicle 8.45941e-015 5.96354e-015
rhumerus -22.6992 14.6626 -101.599
rradius 80.8601
rwrist -16.4748
rhand -3.72892 -45.1821
rfingers 7.12502
rthumb 22.0142 -73.9492
lclavicle 8.45941e-015 5.96354e-015
lhumerus -8.71826 -45.9161 93.5625
lradius 80.4978
lwrist 84.2682
lhand -52.4574 -14.5013
lfingers 7.12502
lthumb -24.9459 13.8905
rfemur -0.101884 31.1575 26.4249
rtibia -2.94649
rfoot -12.7366 -27.6644
rtoes 12.2517
lfemur -2.54591 -25.8394 -8.38894
ltibia 2.33597
lfoot -11.957 35.2298
ltoes -8.17056
103
root -1.13153 17.5985 7.20361 8.75266 -1.94821 -5.87562
lowerback 6.00702 -0.406142 5.62262
upperback -5.25933 0.0763976 0.684178
thorax -8.96242 -0.296049 -2.43845
lowerneck -14.8496 -1.60374 1.06636
upperneck 31.2867 -2.19748 -1.53272
head 12.8651 -1.06453 -1.11576
rclavicle 1.17081e-014 -9.93923e-015
rhumerus -22.8105 16.4421 -101.388
rradius 80.5181
rwrist -8.06435
rhand -4.50351 -41.3144
rfingers 7.12502
rthumb 21.2704 -70.1673
lclavicle 1.17081e-014 -9.93923e-015
lhumerus -8.91195 -46.848 93.9117
lradius 80.7527
lwrist 85.0552
lhand -51.762 -16.3499
lfingers 7.12502
lthumb -24.2794 12.1326
rfemur 0.0268598 31.1724 26.4935
rtibia -2.99051
rfoot -12.9469 -28.0577
rtoes 12.446
lfemur -2.80256 -25.6308 -8.27877
ltibia 2.49503
lfoot -11.6289 34.7041
ltoes -8.74698
104
root -1.13544 17.602 7.20578 8.73368 -1.38653 -5.8761
lowerback 6.13122 -0.502824 5.61808
upperback -5.18685 -0.0414792 0.762237
thorax -8.96637 -0.348857 -2.33685
lowerneck -14.7824 -1.58102 1.13217
upperneck 31.3182 -2.15254 -1.6179
head 12.8623 -1.04707 -1.15258
rclavicle -9.50439e-016 2.62396e-014
rhumerus -22.9142 17.942 -100.64
rradius 80.6853
rwrist 1.65459
rhand -6.43112 -37.2572
rfingers 7.12502
rthumb 19.4179 -66.3076
lclavicle -9.50439e-016 2.62396e-014
lhumerus -9.06971 -47.9417 94.6915
lradius 81.1116
lwrist 84.9941
lhand -51.1506 -18.3549
lfingers 7.12502
lthumb -23.6931 10.2049
rfemur 0.0744773 31.0066 26.5618
rtibia -2.95709
rfoot -13.1611 -28.3887
rtoes 12.6338
lfemur -3.09586 -25.4689 -8.1265
ltibia 2.62381
lfoot -11.2594 34.1344
ltoes -9.32051
105
root -1.13686 17.6042 7.20576 8.73435 -0.741725 -5.90148
lowerback 6.26054 -0.652902 5.60222
upperback -5.14858 -0.22939 0.855535
thorax -9.01618 -0.436264 -2.20214
lowerneck -14.6778 -1.50154 1.24685
upperneck 31.3512 -2.03923 -1.70142
head 12.853 -0.993554 -1.18653
rclavicle -6.68103e-015 2.38542e-015
rhumerus -23.0102 19.1918 -99.4147
rradius 81.2993
rwrist 11.7553
rhand -9.12602 -34.1386
rfingers 7.12502
rthumb 16.8251 -63.4297
lclavicle -6.68103e-015 2.38542e-015
lhumerus -9.19328 -49.1865 95.8406
lradius 81.5318
lwrist 84.2367
lhand -50.5662 -20.4878
lfingers 7.12502
lthumb -23.1325 8.14336
rfemur 0.0228128 30.6823 26.6152
rtibia -2.8427
rfoot -13.376 -28.6692
rtoes 12.8075
lfemur -3.43785 -25.3697 -7.93705
ltibia 2.72792
lfoot -10.8539 33.5413
ltoes -9.90285
106
root -1.13581 17.6048 7.20412 8.75749 -0.031213 -5.94561
lowerback 6.3951 -0.846952 5.58846
upperback -5.14851 -0.474342 0.948589
thorax -9.11504 -0.553323 -2.05931
lowerneck -14.5349 -1.36992 1.41377
upperneck 31.3869 -1.86739 -1.77575
head 12.8376 -0.906843 -1.2169
rclavicle 2.04686e-014 -2.3059e-014
rhumerus -23.0797 20.1614 -97.7539
rradius 82.4207
rwrist 20.9024
rhand -12.2076 -32.5589
rfingers 7.12502
rthumb 13.8569 -62.0772
lclavicle 2.04686e-014 -2.3059e-014
lhumerus -9.25974 -50.5128 97.2741
lradius 81.9695
lwrist 82.674
lhand -50.1158 -22.2264
lfingers 7.12502
lthumb -22.7002 6.45838
rfemur -0.124641 30.2189 26.6498
rtibia -2.65483
rfoot -13.5689 -28.9021
rtoes 12.9153
lfemur -3.82244 -25.3453 -7.72076
ltibia 2.8071
lfoot -10.4305 32.9492
ltoes -10.4794
